STARTFONT 2.1
COMMENT CDC 6612 console font
COMMENT   
FONT -AK Design-Seymour-Bold-R-Normal-Sans-8-80-100-100-M-80-CDC6000-1
SIZE 8 100 100
FONTBOUNDINGBOX 8 8 -1 -1
STARTPROPERTIES 25
FONTNAME_REGISTRY ""
FOUNDRY "AK Design"
FAMILY_NAME "Seymour"
WEIGHT_NAME "Bold"
SLANT "R"
SETWIDTH_NAME "Normal"
ADD_STYLE_NAME "Sans"
PIXEL_SIZE 8
POINT_SIZE 80
RESOLUTION_X 100
RESOLUTION_Y 100
SPACING "M"
AVERAGE_WIDTH 80
CHARSET_REGISTRY "CDC6000"
CHARSET_ENCODING "1"
COPYRIGHT "Copyright Paul Koning, 2003."
FACE_NAME "Seymour"
X_HEIGHT 7
CAP_HEIGHT 7
WEIGHT 15
RESOLUTION 100
QUAD_WIDTH 8
FONT_ASCENT 7
FONT_DESCENT 1
_XMBDFED_INFO "Edited with xmbdfed 4.5."
ENDPROPERTIES
CHARS 48
STARTCHAR char0
ENCODING 0
SWIDTH 720 0
DWIDTH 8 0
BBX 8 8 0 0
BITMAP
00
00
00
00
00
00
00
00
ENDCHAR
STARTCHAR char1
ENCODING 1
SWIDTH 720 0
DWIDTH 8 0
BBX 8 8 0 0
BITMAP
38
6C
6C
7C
C6
C6
C6
00
ENDCHAR
STARTCHAR char2
ENCODING 2
SWIDTH 720 0
DWIDTH 8 0
BBX 8 8 0 0
BITMAP
FC
C6
C6
FC
C6
C6
FC
00
ENDCHAR
STARTCHAR char3
ENCODING 3
SWIDTH 720 0
DWIDTH 8 0
BBX 8 8 0 0
BITMAP
38
6C
C6
C0
C0
66
3C
00
ENDCHAR
STARTCHAR char4
ENCODING 4
SWIDTH 720 0
DWIDTH 8 0
BBX 8 8 0 0
BITMAP
FC
C6
C6
C6
C6
CC
F8
00
ENDCHAR
STARTCHAR char5
ENCODING 5
SWIDTH 720 0
DWIDTH 8 0
BBX 8 8 0 0
BITMAP
FE
C0
C0
F8
C0
C0
FE
00
ENDCHAR
STARTCHAR char6
ENCODING 6
SWIDTH 720 0
DWIDTH 8 0
BBX 8 8 0 0
BITMAP
FE
C0
C0
F8
C0
C0
C0
00
ENDCHAR
STARTCHAR char7
ENCODING 7
SWIDTH 720 0
DWIDTH 8 0
BBX 8 8 0 0
BITMAP
38
6C
C6
D8
CC
66
3C
00
ENDCHAR
STARTCHAR char8
ENCODING 8
SWIDTH 720 0
DWIDTH 8 0
BBX 8 8 0 0
BITMAP
C6
C6
C6
FE
C6
C6
C6
00
ENDCHAR
STARTCHAR char9
ENCODING 9
SWIDTH 720 0
DWIDTH 8 0
BBX 8 8 0 0
BITMAP
30
30
30
30
30
30
30
00
ENDCHAR
STARTCHAR char10
ENCODING 10
SWIDTH 720 0
DWIDTH 8 0
BBX 8 8 0 0
BITMAP
0C
0C
0C
0C
CC
6C
38
00
ENDCHAR
STARTCHAR char11
ENCODING 11
SWIDTH 720 0
DWIDTH 8 0
BBX 8 8 0 0
BITMAP
CC
D8
F0
E0
F0
D8
CC
00
ENDCHAR
STARTCHAR char12
ENCODING 12
SWIDTH 720 0
DWIDTH 8 0
BBX 8 8 0 0
BITMAP
C0
C0
C0
C0
C0
C0
FE
00
ENDCHAR
STARTCHAR char13
ENCODING 13
SWIDTH 720 0
DWIDTH 8 0
BBX 8 8 0 0
BITMAP
C6
EE
FE
DE
C6
C6
C6
00
ENDCHAR
STARTCHAR char14
ENCODING 14
SWIDTH 720 0
DWIDTH 8 0
BBX 8 8 0 0
BITMAP
C6
E6
F6
DE
CE
C6
C6
00
ENDCHAR
STARTCHAR char15
ENCODING 15
SWIDTH 720 0
DWIDTH 8 0
BBX 8 8 0 0
BITMAP
1C
36
66
C6
C6
CC
78
00
ENDCHAR
STARTCHAR char16
ENCODING 16
SWIDTH 720 0
DWIDTH 8 0
BBX 8 8 0 0
BITMAP
FC
C6
DC
F0
C0
C0
C0
00
ENDCHAR
STARTCHAR char17
ENCODING 17
SWIDTH 720 0
DWIDTH 8 0
BBX 8 8 0 0
BITMAP
1C
36
66
C6
D6
CC
7A
00
ENDCHAR
STARTCHAR char18
ENCODING 18
SWIDTH 720 0
DWIDTH 8 0
BBX 8 8 0 0
BITMAP
FC
C6
DC
F0
D8
CC
C6
00
ENDCHAR
STARTCHAR char19
ENCODING 19
SWIDTH 720 0
DWIDTH 8 0
BBX 8 8 0 0
BITMAP
7C
C6
C0
70
1C
06
FC
00
ENDCHAR
STARTCHAR char20
ENCODING 20
SWIDTH 720 0
DWIDTH 8 0
BBX 8 8 0 0
BITMAP
FE
18
18
18
18
18
18
00
ENDCHAR
STARTCHAR char21
ENCODING 21
SWIDTH 720 0
DWIDTH 8 0
BBX 8 8 0 0
BITMAP
C6
C6
C6
C6
C6
66
3C
00
ENDCHAR
STARTCHAR char22
ENCODING 22
SWIDTH 720 0
DWIDTH 8 0
BBX 8 8 0 0
BITMAP
C6
C6
C6
6C
6C
38
38
00
ENDCHAR
STARTCHAR char23
ENCODING 23
SWIDTH 720 0
DWIDTH 8 0
BBX 8 8 0 0
BITMAP
C6
C6
C6
DE
FE
EE
C6
00
ENDCHAR
STARTCHAR char24
ENCODING 24
SWIDTH 720 0
DWIDTH 8 0
BBX 8 8 0 0
BITMAP
C6
C6
6C
38
6C
C6
C6
00
ENDCHAR
STARTCHAR char25
ENCODING 25
SWIDTH 720 0
DWIDTH 8 0
BBX 8 8 0 0
BITMAP
C6
66
3C
18
18
18
18
00
ENDCHAR
STARTCHAR char26
ENCODING 26
SWIDTH 720 0
DWIDTH 8 0
BBX 8 8 0 0
BITMAP
FE
0C
18
30
60
C0
FE
00
ENDCHAR
STARTCHAR char27
ENCODING 27
SWIDTH 720 0
DWIDTH 8 0
BBX 8 8 0 0
BITMAP
7C
C6
C6
C6
C6
C6
7C
00
ENDCHAR
STARTCHAR char28
ENCODING 28
SWIDTH 720 0
DWIDTH 8 0
BBX 8 8 0 0
BITMAP
30
70
30
30
30
30
30
00
ENDCHAR
STARTCHAR char29
ENCODING 29
SWIDTH 720 0
DWIDTH 8 0
BBX 8 8 0 0
BITMAP
3C
E6
06
1C
70
C0
FE
00
ENDCHAR
STARTCHAR char30
ENCODING 30
SWIDTH 720 0
DWIDTH 8 0
BBX 8 8 0 0
BITMAP
7C
C6
06
1C
06
C6
7C
00
ENDCHAR
STARTCHAR char31
ENCODING 31
SWIDTH 720 0
DWIDTH 8 0
BBX 8 8 0 0
BITMAP
18
38
78
D8
FE
18
18
00
ENDCHAR
STARTCHAR char32
ENCODING 32
SWIDTH 720 0
DWIDTH 8 0
BBX 8 8 0 0
BITMAP
FE
C0
F8
0C
06
C6
7C
00
ENDCHAR
STARTCHAR char33
ENCODING 33
SWIDTH 720 0
DWIDTH 8 0
BBX 8 8 0 0
BITMAP
3C
66
C0
FC
C6
C6
7C
00
ENDCHAR
STARTCHAR char34
ENCODING 34
SWIDTH 720 0
DWIDTH 8 0
BBX 8 8 0 0
BITMAP
FE
0C
18
30
30
60
C0
00
ENDCHAR
STARTCHAR char35
ENCODING 35
SWIDTH 720 0
DWIDTH 8 0
BBX 8 8 0 0
BITMAP
7C
C6
C6
7C
C6
C6
7C
00
ENDCHAR
STARTCHAR char36
ENCODING 36
SWIDTH 720 0
DWIDTH 8 0
BBX 8 8 0 0
BITMAP
7C
C6
C6
7E
06
CC
78
00
ENDCHAR
STARTCHAR char37
ENCODING 37
SWIDTH 720 0
DWIDTH 8 0
BBX 8 8 0 0
BITMAP
18
18
18
FE
18
18
18
00
ENDCHAR
STARTCHAR char38
ENCODING 38
SWIDTH 720 0
DWIDTH 8 0
BBX 8 8 0 0
BITMAP
00
00
FE
FE
00
00
00
00
ENDCHAR
STARTCHAR char39
ENCODING 39
SWIDTH 720 0
DWIDTH 8 0
BBX 8 8 0 0
BITMAP
00
48
30
FC
30
48
00
00
ENDCHAR
STARTCHAR char40
ENCODING 40
SWIDTH 720 0
DWIDTH 8 0
BBX 8 8 0 0
BITMAP
06
0C
18
30
30
60
C0
00
ENDCHAR
STARTCHAR char41
ENCODING 41
SWIDTH 720 0
DWIDTH 8 0
BBX 8 8 0 0
BITMAP
30
60
60
60
60
60
30
00
ENDCHAR
STARTCHAR char42
ENCODING 42
SWIDTH 720 0
DWIDTH 8 0
BBX 8 8 0 0
BITMAP
30
18
18
18
18
18
30
00
ENDCHAR
STARTCHAR char43
ENCODING 43
SWIDTH 720 0
DWIDTH 8 0
BBX 8 8 0 0
BITMAP
00
00
00
00
00
00
00
00
ENDCHAR
STARTCHAR char44
ENCODING 44
SWIDTH 720 0
DWIDTH 8 0
BBX 8 8 0 0
BITMAP
00
FE
FE
00
FE
FE
00
00
ENDCHAR
STARTCHAR char45
ENCODING 45
SWIDTH 720 0
DWIDTH 8 0
BBX 8 8 0 0
BITMAP
00
00
00
00
00
00
00
00
ENDCHAR
STARTCHAR char46
ENCODING 46
SWIDTH 720 0
DWIDTH 8 0
BBX 8 8 0 0
BITMAP
00
00
00
00
38
38
30
60
ENDCHAR
STARTCHAR char47
ENCODING 47
SWIDTH 720 0
DWIDTH 8 0
BBX 8 8 0 0
BITMAP
00
00
00
00
00
70
70
00
ENDCHAR
ENDFONT
